<?xml version="1.0" encoding="UTF-8"?>
<svg version="1.1" xmlns="http://www.w3.org/2000/svg" width="308" height="308">
<path d="M0 0 C1.12535156 -0.020625 2.25070313 -0.04125 3.41015625 -0.0625 C19.56561274 -0.13720731 33.23965605 5.6463014 45.375 16.25 C45.96667969 16.74757813 46.55835938 17.24515625 47.16796875 17.7578125 C59.57867017 29.06092271 67.59409243 46.90273745 68.49951172 63.53759766 C68.6209527 68.44642259 68.53539603 73.3430697 68.375 78.25 C69.65375 78.21519531 70.9325 78.18039063 72.25 78.14453125 C73.95832009 78.11637213 75.66665452 78.08907426 77.375 78.0625 C78.21417969 78.03736328 79.05335938 78.01222656 79.91796875 77.98632812 C86.93949924 77.90468242 92.53016012 78.92240373 98.125 83.5 C104.03537958 90.72379727 105.2595878 96.72821014 106.3125 105.875 C106.47089355 107.14593506 106.62928711 108.41687012 106.79248047 109.72631836 C108.55669843 124.00654011 110.09103887 138.31898593 111.62475586 152.62548828 C112.53342138 161.05647199 113.50866413 169.4362594 114.86572266 177.80883789 C115.92329993 184.95483585 116.64507007 192.14589955 117.43469238 199.32556152 C119.39175562 217.0891494 121.55986583 234.80582841 123.99926758 252.50952148 C127.21403849 275.95708711 127.21403849 275.95708711 119.83203125 286.44140625 C115.15634587 292.25123958 109.72796483 295.81713502 102.375 297.25 C99.65962756 297.34818876 96.96995381 297.39349197 94.25460815 297.39044189 C93.42928498 297.39341302 92.60396181 297.39638414 91.75362885 297.3994453 C88.98401707 297.40812697 86.21444854 297.40964011 83.44482422 297.41113281 C81.46048388 297.41576144 79.47614444 297.42078616 77.49180603 297.42617798 C72.09691575 297.43930153 66.70203791 297.4457471 61.30713415 297.45018864 C57.93539735 297.45312004 54.56366395 297.45722502 51.19192886 297.46169281 C40.63921146 297.47536895 30.08650182 297.48503447 19.53377616 297.4888947 C7.35893819 297.49337288 -4.81578737 297.5109092 -16.99059117 297.5398953 C-26.40476527 297.56152927 -35.8189078 297.57159994 -45.23310649 297.57293582 C-50.85384433 297.57398281 -56.47447651 297.57986794 -62.09518814 297.59775543 C-67.38604936 297.61426522 -72.67672584 297.61637744 -77.96760368 297.60761642 C-79.90493071 297.60684755 -81.84226778 297.61116892 -83.77956963 297.62107468 C-108.98233146 297.74233741 -108.98233146 297.74233741 -118.625 288.25 C-124.34405319 281.35221066 -126.16457768 273.46238841 -125.34521484 264.62939453 C-125.25191895 263.80294434 -125.15862305 262.97649414 -125.0625 262.125 C-124.96662598 261.18640137 -124.87075195 260.24780273 -124.77197266 259.28076172 C-123.55196489 247.80692203 -122.02259711 236.36533884 -120.52885437 224.92449951 C-118.68624712 210.81075448 -116.91192067 196.68864302 -115.14834595 182.56484985 C-114.79972717 179.77293443 -114.4505828 176.9810856 -114.10092163 174.18930054 C-112.40481441 160.64682741 -110.71493653 147.1038859 -109.10546875 133.55078125 C-108.99220245 132.60168884 -108.87893616 131.65259644 -108.76223755 130.67474365 C-108.2540123 126.41499692 -107.75079655 122.1548296 -107.25976562 117.89306641 C-106.43930238 110.89022333 -105.49930029 103.92261405 -104.21484375 96.98828125 C-103.99820068 95.81434814 -103.78155762 94.64041504 -103.55834961 93.4309082 C-101.78013059 87.3706373 -98.03599561 83.36425348 -92.734375 80.078125 C-85.12094548 76.90086701 -75.75154684 77.50422854 -67.625 77.25 C-67.58632812 75.32800781 -67.58632812 75.32800781 -67.546875 73.3671875 C-66.92088611 51.77789849 -61.0182306 32.31229661 -45.15966797 16.81835938 C-32.14579492 5.0312557 -17.34313329 0.07785918 0 0 Z M-31.875 37.4375 C-42.01971188 49.67686899 -44.56119641 61.5959252 -43.625 77.25 C-41.82511601 79.04988399 -39.37500124 78.36993004 -36.97944641 78.37442017 C-35.76456795 78.36902725 -35.76456795 78.36902725 -34.52514648 78.36352539 C-33.25208649 78.36374443 -33.25208649 78.36374443 -31.95330811 78.3639679 C-29.13421109 78.36326848 -26.31517929 78.35547478 -23.49609375 78.34765625 C-21.54696183 78.34579217 -19.59782945 78.34436822 -17.6486969 78.34336853 C-12.50793168 78.33954255 -7.36719453 78.32971159 -2.22644043 78.31866455 C3.01505148 78.30845215 8.2565479 78.30387128 13.49804688 78.29882812 C23.79037694 78.28808939 34.08268614 78.27101201 44.375 78.25 C44.40548061 75.36450273 44.4277447 72.47933096 44.4453125 69.59375 C44.45473877 68.78131836 44.46416504 67.96888672 44.47387695 67.13183594 C44.52252836 56.47177133 41.26169523 49.05636981 35.375 40.25 C34.7975 39.363125 34.22 38.47625 33.625 37.5625 C25.26123946 28.96641278 13.51307457 23.28251642 1.4375 22.9375 C-11.14529563 23.08849355 -23.24577449 28.30259209 -31.875 37.4375 Z M-12.671875 136.0390625 C-13.52428772 136.89809174 -14.37670044 137.75712097 -15.25494385 138.6421814 C-17.96883723 141.37943126 -20.67233969 144.12666228 -23.375 146.875 C-26.09366909 149.62870225 -28.81445949 152.38026144 -31.53790283 155.12924194 C-33.23049495 156.83884796 -34.91999611 158.55152063 -36.60614014 160.26748657 C-37.36743225 161.03853729 -38.12872437 161.80958801 -38.91308594 162.60400391 C-39.5833783 163.28556549 -40.25367065 163.96712708 -40.9442749 164.66934204 C-42.625 166.25 -42.625 166.25 -44.625 167.25 C-44.625 167.91 -44.625 168.57 -44.625 169.25 C-45.17462402 169.47437744 -45.72424805 169.69875488 -46.29052734 169.92993164 C-49.35530173 171.66296188 -51.49251739 173.87607253 -53.9765625 176.37109375 C-54.4766684 176.87165787 -54.97677429 177.37222198 -55.49203491 177.88795471 C-56.54491966 178.94385181 -57.5953817 180.0021696 -58.64355469 181.06274414 C-60.24623676 182.68369387 -61.85678803 184.29648688 -63.46875 185.90820312 C-70.99727245 192.56034054 -70.99727245 192.56034054 -74 201.5625 C-74.02835938 202.30113281 -74.05671875 203.03976563 -74.0859375 203.80078125 C-72.65657356 211.39579132 -65.03941376 217.15898068 -59.85546875 222.35546875 C-58.89132059 223.32605463 -57.92731857 224.29678572 -56.9634552 225.26765442 C-54.94881827 227.29421883 -52.9301391 229.31665579 -50.90893555 231.33666992 C-48.32992927 233.91547273 -45.76497488 236.50777817 -43.20333385 239.10381603 C-41.21896029 241.11050565 -39.22548231 243.10795933 -37.22939491 245.1029911 C-35.82145686 246.51441021 -34.42260997 247.93487944 -33.02397156 249.35551453 C-26.71724466 255.82039046 -26.71724466 255.82039046 -18.625 259.25 C-12.12390371 259.16443316 -8.1814092 256.59996702 -3.70220947 252.09463501 C-2.71266266 251.04618912 -2.71266266 251.04618912 -1.703125 249.9765625 C-0.99524841 249.25640961 -0.28737183 248.53625671 0.44195557 247.79428101 C2.68681592 245.50389118 4.90625659 243.19067178 7.125 240.875 C9.3630717 238.57188208 11.60609121 236.27370136 13.85089111 233.97714233 C15.24166631 232.55077714 16.62762196 231.11969181 18.00799561 229.68325806 C20.69710276 226.89758123 23.29585023 224.31269612 26.33691406 221.90380859 C27.00948242 221.35805176 27.68205078 220.81229492 28.375 220.25 C28.375 219.59 28.375 218.93 28.375 218.25 C29.365 217.92 30.355 217.59 31.375 217.25 C31.375 216.59 31.375 215.93 31.375 215.25 C32.035 215.25 32.695 215.25 33.375 215.25 C33.375 214.59 33.375 213.93 33.375 213.25 C33.92534912 213.02272217 34.47569824 212.79544434 35.04272461 212.5612793 C39.81981416 209.87544783 43.48315883 205.51363605 47.33862305 201.65698242 C48.92538928 200.07457744 50.52742911 198.5088532 52.13085938 196.94335938 C53.15202185 195.92806824 54.17223557 194.91182179 55.19140625 193.89453125 C56.11381104 192.98034424 57.03621582 192.06615723 57.98657227 191.12426758 C61.22446887 187.2277372 63.21980396 183.55585572 63.5637207 178.44604492 C63.47695068 177.54990479 63.39018066 176.65376465 63.30078125 175.73046875 C63.21119141 174.71662109 63.12160156 173.70277344 63.02929688 172.65820312 C62.91650391 171.59537109 62.80371094 170.53253906 62.6875 169.4375 C62.58373047 168.33470703 62.47996094 167.23191406 62.37304688 166.09570312 C62.05855901 162.81168742 61.71890299 159.53104786 61.375 156.25 C61.2010622 154.47533481 61.02781769 152.70060145 60.85546875 150.92578125 C60.35203443 137.80667733 60.35203443 137.80667733 54.875 126.75 C51.49824467 124.7239468 49.74598797 124.12101839 45.83691406 124.08886719 C44.42469574 124.07445587 44.42469574 124.07445587 42.98394775 124.05975342 C41.45275299 124.0533786 41.45275299 124.0533786 39.890625 124.046875 C38.31809967 124.03832489 38.31809967 124.03832489 36.71380615 124.02960205 C34.49118054 124.02014266 32.26854085 124.01361436 30.04589844 124.00976562 C26.6527437 124.0000792 23.26019949 123.96907208 19.8671875 123.9375 C17.70833693 123.93096811 15.54948203 123.92571837 13.390625 123.921875 C12.37792542 123.9095282 11.36522583 123.8971814 10.32183838 123.88446045 C-0.5695942 123.91871964 -5.29764711 128.49652271 -12.671875 136.0390625 Z " fill="#F84E46" transform="translate(153.625,-0.25)"/>
<path d="M0 0 C1.12535156 -0.020625 2.25070313 -0.04125 3.41015625 -0.0625 C19.56561274 -0.13720731 33.23965605 5.6463014 45.375 16.25 C45.96667969 16.74757813 46.55835938 17.24515625 47.16796875 17.7578125 C55.2627668 25.1301915 62.52969188 36.62486338 65.375 47.25 C65.375 48.57 65.375 49.89 65.375 51.25 C64.715 51.25 64.055 51.25 63.375 51.25 C63.04886719 50.29738281 62.72273437 49.34476563 62.38671875 48.36328125 C61.94560497 47.09625231 61.50418229 45.82933087 61.0625 44.5625 C60.63324219 43.32113281 60.20398438 42.07976563 59.76171875 40.80078125 C58.54303766 37.68027107 57.11965848 35.0895468 55.375 32.25 C55.375 31.59 55.375 30.93 55.375 30.25 C54.385 30.25 53.395 30.25 52.375 30.25 C52.065625 29.445625 51.75625 28.64125 51.4375 27.8125 C48.95388441 22.8092744 44.66240462 18.74516681 40.375 15.25 C39.385 15.25 38.395 15.25 37.375 15.25 C37.375 14.59 37.375 13.93 37.375 13.25 C36.715 13.25 36.055 13.25 35.375 13.25 C35.375 12.59 35.375 11.93 35.375 11.25 C18.7538381 2.59314484 1.44890155 -0.1595982 -16.6875 4.5 C-17.88354858 4.80647461 -17.88354858 4.80647461 -19.10375977 5.11914062 C-23.92141765 6.46953314 -27.54350373 8.26368528 -31.625 11.25 C-32.80373116 11.9117022 -33.9896161 12.56113661 -35.1875 13.1875 C-38.57527313 15.10650003 -40.95328025 17.38744313 -43.625 20.25 C-44.31722656 20.87648438 -45.00945312 21.50296875 -45.72265625 22.1484375 C-52.19562925 28.13512705 -57.43842285 35.14261761 -59.15625 43.984375 C-59.625 46.25 -59.625 46.25 -61.625 48.25 C-64.00974387 57.99160077 -64.17075123 68.26848107 -64.625 78.25 C-69.01706385 79.92696983 -72.6797803 80.52163696 -77.375 80.5 C-78.50421875 80.50515625 -79.6334375 80.5103125 -80.796875 80.515625 C-83.625 80.25 -83.625 80.25 -85.625 78.25 C-79.685 77.92 -73.745 77.59 -67.625 77.25 C-67.59921875 75.96867187 -67.5734375 74.68734375 -67.546875 73.3671875 C-66.92088611 51.77789849 -61.0182306 32.31229661 -45.15966797 16.81835938 C-32.14579492 5.0312557 -17.34313329 0.07785918 0 0 Z " fill="#C21B82" transform="translate(153.625,-0.25)"/>
<path d="M0 0 C3.57623788 1.9137306 5.69762236 4.09286708 7 8 C7.3711875 13.01103128 7.11788946 15.99128499 4 20 C0.19533131 23.40852098 -2.63120943 23.52581157 -7.58984375 23.3359375 C-11.23556258 22.8277822 -12.73209489 21.90575342 -15 19 C-16.5589348 14.9633379 -17.32057014 11.44256563 -16.375 7.1875 C-12.19063182 0.53055062 -7.60828047 -1.16166699 0 0 Z " fill="#E74C45" transform="translate(188,143)"/>
<path d="M0 0 C1.80629802 0.74439756 3.61920819 1.4728986 5.4375 2.1875 C6.30246094 2.53167969 7.16742188 2.87585938 8.05859375 3.23046875 C8.69925781 3.48441406 9.33992188 3.73835938 10 4 C10 4.66 10 5.32 10 6 C10.59039062 6.0928125 11.18078125 6.185625 11.7890625 6.28125 C18.31601008 8.40308455 23.89392334 18.1628838 27 24 C29.48012607 30.41325529 29.23005745 36.62896932 29.125 43.4375 C29.11597656 44.55060547 29.10695313 45.66371094 29.09765625 46.81054688 C29.0742224 49.54059023 29.041414 52.2701801 29 55 C-1.00263164 56.03419412 -30.98183335 56.11754792 -61 56 C-61.16988369 53.81274749 -61.33575269 51.62518299 -61.5 49.4375 C-61.5928125 48.21933594 -61.685625 47.00117187 -61.78125 45.74609375 C-62.39713663 35.19903517 -62.39713663 35.19903517 -60.625 30.3125 C-60.36976562 29.58675781 -60.11453125 28.86101563 -59.8515625 28.11328125 C-59.00452354 26.01122586 -58.04389834 24.01063897 -57 22 C-56.34 22 -55.68 22 -55 22 C-54.89558594 21.25492188 -54.79117188 20.50984375 -54.68359375 19.7421875 C-52.61272018 11.43502609 -43.74762674 6.36472359 -37 2 C-36.01 1.34 -35.02 0.68 -34 0 C-22.78669376 -3.02912114 -10.72390842 -5.56054511 0 0 Z M-48.25 13.1875 C-58.39471188 25.42686899 -60.93619641 37.3459252 -60 53 C-58.20011601 54.79988399 -55.75000124 54.11993004 -53.35444641 54.12442017 C-52.13956795 54.11902725 -52.13956795 54.11902725 -50.90014648 54.11352539 C-49.62708649 54.11374443 -49.62708649 54.11374443 -48.32830811 54.1139679 C-45.50921109 54.11326848 -42.69017929 54.10547478 -39.87109375 54.09765625 C-37.92196183 54.09579217 -35.97282945 54.09436822 -34.0236969 54.09336853 C-28.88293168 54.08954255 -23.74219453 54.07971159 -18.60144043 54.06866455 C-13.35994852 54.05845215 -8.1184521 54.05387128 -2.87695312 54.04882812 C7.41537694 54.03808939 17.70768614 54.02101201 28 54 C28.03048061 51.11450273 28.0527447 48.22933096 28.0703125 45.34375 C28.07973877 44.53131836 28.08916504 43.71888672 28.09887695 42.88183594 C28.14752836 32.22177133 24.88669523 24.80636981 19 16 C18.4225 15.113125 17.845 14.22625 17.25 13.3125 C8.88623946 4.71641278 -2.86192543 -0.96748358 -14.9375 -1.3125 C-27.52029563 -1.16150645 -39.62077449 4.05259209 -48.25 13.1875 Z " fill="#A31D72" transform="translate(170,24)"/>
<path d="M0 0 C-2 2 -2 2 -5.25 3.625 C-10.28163908 6.49271914 -14.05200752 10.59472572 -15.62963867 16.26171875 C-17.01856274 24.62315651 -18.03698404 33.01873079 -19 41.4375 C-19.17606236 42.95427893 -19.35225146 44.47104315 -19.52856445 45.98779297 C-20.64709807 55.6626707 -21.68848215 65.34281943 -22.60546875 75.0390625 C-23.20020036 81.0099323 -23.97793448 86.94177717 -24.875 92.875 C-25.90067893 99.9853457 -26.74055882 107.11346309 -27.5625 114.25 C-27.68931152 115.35069824 -27.81612305 116.45139648 -27.94677734 117.58544922 C-28.60378786 123.34926275 -29.22758224 129.11449877 -29.7890625 134.88842773 C-30.60893099 143.09565291 -30.60893099 143.09565291 -32 146.3125 C-33.30426338 149.81770784 -33.43634555 153.1742398 -33.65625 156.890625 C-33.7696875 157.58671875 -33.883125 158.2828125 -34 159 C-34.66 159.33 -35.32 159.66 -36 160 C-35.4352192 150.81647394 -34.5467606 141.74117262 -33.3125 132.625 C-32.95211523 129.89596133 -32.59268204 127.16681098 -32.234375 124.4375 C-32.13774063 123.70407379 -32.04110626 122.97064758 -31.94154358 122.21499634 C-30.73708232 113.04910013 -29.59195904 103.87575992 -28.44677734 94.70230103 C-28.06171693 91.61872919 -27.67542123 88.5353137 -27.2890625 85.4519043 C-26.03380636 75.4152487 -24.79968981 65.37660539 -23.609375 55.33203125 C-23.38800395 53.47508997 -23.16656964 51.61815622 -22.94506836 49.76123047 C-22.53561273 46.32739461 -22.13377214 42.89279177 -21.73657227 39.45751953 C-20.87978483 32.16690781 -19.92640861 24.90163596 -18.6015625 17.6796875 C-18.38967285 16.51550293 -18.1777832 15.35131836 -17.95947266 14.15185547 C-16.18047663 8.30787616 -12.15540794 3.85298815 -6.91796875 0.77734375 C-4.52558788 -0.19227701 -2.55640548 -0.14202253 0 0 Z " fill="#B41A7E" transform="translate(68,79)"/>
<path d="M0 0 C0.33 0 0.66 0 1 0 C5.03969077 28.42211007 5.03969077 28.42211007 -2.54296875 39.19140625 C-6.76711222 44.44017033 -11.55599064 48.33191951 -18.40692139 49.36183929 C-21.12816786 49.48945593 -23.82292502 49.4952041 -26.546875 49.45410156 C-27.57216812 49.45468567 -28.59746124 49.45526978 -29.65382385 49.45587158 C-33.01956857 49.45310016 -36.3844113 49.42205183 -39.75 49.390625 C-42.09268714 49.38315928 -44.43538054 49.37746791 -46.77807617 49.37347412 C-52.9266705 49.35824399 -59.0748834 49.31898427 -65.22332764 49.2746582 C-71.50430136 49.23364921 -77.78533707 49.21545106 -84.06640625 49.1953125 C-96.37777121 49.15248788 -108.68885382 49.08426795 -121 49 C-121 48.67 -121 48.34 -121 48 C-110.30686483 46.61381101 -99.55904155 46.87337264 -88.80078125 46.90234375 C-86.75384048 46.90421177 -84.70689926 46.90563386 -82.65995789 46.90663147 C-77.30562071 46.91042638 -71.9513112 46.92023042 -66.59698486 46.93133545 C-61.11999892 46.94161504 -55.64300846 46.94614305 -50.16601562 46.95117188 C-39.44399834 46.96185575 -28.72200148 46.9788953 -18 47 C-17.505 46.01 -17.505 46.01 -17 45 C-15.906875 44.731875 -14.81375 44.46375 -13.6875 44.1875 C-9.44304881 42.82064284 -8.47873234 41.58988821 -6 38 C-4.948125 37.071875 -4.948125 37.071875 -3.875 36.125 C1.60190883 29.91783666 0.23028629 20.78484416 0.125 13.0625 C0.11597656 11.80630859 0.10695313 10.55011719 0.09765625 9.25585938 C0.07419249 6.17037478 0.04136201 3.08528795 0 0 Z " fill="#D48729" transform="translate(276,247)"/>
<path d="M0 0 C1.54996422 0.03753891 1.54996422 0.03753891 3.13124084 0.07583618 C6.41206761 0.15761207 9.69225376 0.25436539 12.97265625 0.3515625 C15.20505247 0.40984538 17.43747451 0.46714769 19.66992188 0.5234375 C25.12535026 0.66312733 30.58033128 0.81509635 36.03515625 0.9765625 C36.03515625 1.3065625 36.03515625 1.6365625 36.03515625 1.9765625 C35.45966034 1.98242874 34.88416443 1.98829498 34.29122925 1.99433899 C28.28855913 2.05839086 22.2864193 2.14284082 16.28417969 2.23901367 C14.04564414 2.27221916 11.80702576 2.30026466 9.56835938 2.32299805 C6.34599586 2.35662395 3.12438851 2.40894522 -0.09765625 2.46484375 C-1.59330612 2.47442863 -1.59330612 2.47442863 -3.11917114 2.48420715 C-13.93436088 2.71182283 -18.72966247 7.30993579 -26.08203125 14.80078125 C-26.93918732 15.66218216 -27.79634338 16.52358307 -28.67947388 17.41108704 C-31.40673792 20.15509965 -34.12336612 22.9093754 -36.83984375 25.6640625 C-38.69071369 27.52998411 -40.54226858 29.39522655 -42.39453125 31.25976562 C-46.92593671 35.82418976 -51.44866194 40.39707778 -55.96484375 44.9765625 C-56.45984375 43.4915625 -56.45984375 43.4915625 -56.96484375 41.9765625 C-56.63484375 41.3165625 -56.30484375 40.6565625 -55.96484375 39.9765625 C-55.30484375 39.9765625 -54.64484375 39.9765625 -53.96484375 39.9765625 C-54.29484375 38.6565625 -54.62484375 37.3365625 -54.96484375 35.9765625 C-54.30484375 35.9765625 -53.64484375 35.9765625 -52.96484375 35.9765625 C-52.96484375 35.3165625 -52.96484375 34.6565625 -52.96484375 33.9765625 C-52.18109375 33.8940625 -51.39734375 33.8115625 -50.58984375 33.7265625 C-49.72359375 33.4790625 -48.85734375 33.2315625 -47.96484375 32.9765625 C-47.26333223 31.6612284 -46.5995845 30.32538658 -45.96484375 28.9765625 C-44.78921875 28.2959375 -44.78921875 28.2959375 -43.58984375 27.6015625 C-40.71767385 26.07753826 -40.71767385 26.07753826 -38.90234375 22.8515625 C-36.96484375 19.9765625 -36.96484375 19.9765625 -34.71484375 19.1015625 C-34.13734375 19.0603125 -33.55984375 19.0190625 -32.96484375 18.9765625 C-32.96484375 18.3165625 -32.96484375 17.6565625 -32.96484375 16.9765625 C-31.97484375 16.9765625 -30.98484375 16.9765625 -29.96484375 16.9765625 C-29.63484375 15.9865625 -29.30484375 14.9965625 -28.96484375 13.9765625 C-28.30484375 13.9765625 -27.64484375 13.9765625 -26.96484375 13.9765625 C-26.96484375 12.3265625 -26.96484375 10.6765625 -26.96484375 8.9765625 C-20.21484375 4.9765625 -20.21484375 4.9765625 -17.96484375 4.9765625 C-17.96484375 3.9865625 -17.96484375 2.9965625 -17.96484375 1.9765625 C-11.86291878 -0.19449277 -6.43194609 -0.20876815 0 0 Z " fill="#BD2E5F" transform="translate(166.96484375,122.0234375)"/>
<path d="M0 0 C0.33 0 0.66 0 1 0 C1.50847346 13.52162743 0.06045908 26.62200203 -1.63793945 40.02612305 C-2.07791977 43.64001397 -2.44713089 47.25791556 -2.79345703 50.88183594 C-3.5901557 59.05223506 -3.5901557 59.05223506 -5 62.3125 C-6.30426338 65.81770784 -6.43634555 69.1742398 -6.65625 72.890625 C-6.7696875 73.58671875 -6.883125 74.2828125 -7 75 C-7.99 75.495 -7.99 75.495 -9 76 C-8.42077822 66.45424258 -7.46221719 57.04089756 -6.1875 47.5625 C-6.01226243 46.23630387 -5.83746739 44.9100492 -5.66308594 43.58374023 C-5.29903617 40.81732119 -4.93308612 38.05116304 -4.56591797 35.28515625 C-3.69939095 28.74215402 -2.86016615 22.19561609 -2.01846313 15.64938354 C-1.59143814 12.32992803 -1.16284177 9.01067597 -0.734375 5.69140625 C-0.59225586 4.58998291 -0.45013672 3.48855957 -0.30371094 2.35375977 C-0.20348633 1.57701904 -0.10326172 0.80027832 0 0 Z " fill="#B4246D" transform="translate(41,163)"/>
<path d="M0 0 C0.33 0 0.66 0 1 0 C0.85636473 1.37523135 0.70996483 2.75017402 0.5625 4.125 C0.48128906 4.89070313 0.40007812 5.65640625 0.31640625 6.4453125 C0.09848221 8.20484731 -0.18298686 9.95728193 -0.51586914 11.69873047 C-1.04479853 15.30547945 -1.09687308 18.73145404 -1.0625 22.375 C-1.05347656 23.62023437 -1.04445313 24.86546875 -1.03515625 26.1484375 C-1.02355469 27.08945313 -1.01195313 28.03046875 -1 29 C0.52584717 29.03758423 0.52584717 29.03758423 2.08251953 29.07592773 C5.92570563 29.17146168 9.76877077 29.27130026 13.61181641 29.37231445 C15.26217787 29.4151206 16.91256842 29.45682248 18.56298828 29.49731445 C28.73693811 29.74779772 38.85465902 30.15851283 49 31 C49 31.33 49 31.66 49 32 C31.84 32 14.68 32 -3 32 C-4.47126108 11.40234487 -4.47126108 11.40234487 -2.5625 6.1875 C-2.29566406 5.43855469 -2.02882813 4.68960938 -1.75390625 3.91796875 C-1 2 -1 2 0 0 Z " fill="#C2217D" transform="translate(112,48)"/>
<path d="M0 0 C6.64570129 1.90014971 10.8524677 5.53496799 16 10 C16.62132812 10.52464844 17.24265625 11.04929687 17.8828125 11.58984375 C25.93550205 18.94962745 33.16569249 30.41594257 36 41 C36 42.32 36 43.64 36 45 C35.34 45 34.68 45 34 45 C33.67386719 44.04738281 33.34773438 43.09476563 33.01171875 42.11328125 C32.57060497 40.84625231 32.12918229 39.57933087 31.6875 38.3125 C31.25824219 37.07113281 30.82898438 35.82976563 30.38671875 34.55078125 C29.16803766 31.43027107 27.74465848 28.8395468 26 26 C26 25.34 26 24.68 26 24 C25.01 24 24.02 24 23 24 C22.5359375 22.7934375 22.5359375 22.7934375 22.0625 21.5625 C19.57888441 16.5592744 15.28740462 12.49516681 11 9 C10.01 9 9.02 9 8 9 C8 8.34 8 7.68 8 7 C7.34 7 6.68 7 6 7 C6 6.34 6 5.68 6 5 C5.401875 4.71125 4.80375 4.4225 4.1875 4.125 C2 3 2 3 -1 1 C-0.67 0.67 -0.34 0.34 0 0 Z " fill="#B72171" transform="translate(183,6)"/>
<path d="M0 0 C0.99 0.33 1.98 0.66 3 1 C2.43490723 1.55985596 1.86981445 2.11971191 1.28759766 2.6965332 C-1.26921512 5.23256957 -3.82214364 7.77248128 -6.375 10.3125 C-7.26445313 11.19357422 -8.15390625 12.07464844 -9.0703125 12.98242188 C-10.34648438 14.25375977 -10.34648438 14.25375977 -11.6484375 15.55078125 C-12.43395996 16.33106689 -13.21948242 17.11135254 -14.02880859 17.9152832 C-17.8197506 21.92455417 -18.44072737 24.4158008 -18.3203125 29.72265625 C-17.8282165 33.22133877 -16.2071884 35.30232529 -14 38 C-13.2575 38.94875 -12.515 39.8975 -11.75 40.875 C-10.88375 41.926875 -10.88375 41.926875 -10 43 C-10.99 43.495 -10.99 43.495 -12 44 C-12 43.34 -12 42.68 -12 42 C-12.61875 41.690625 -13.2375 41.38125 -13.875 41.0625 C-18.15435532 38.92282234 -19.20882039 37.64078353 -21 33 C-21.5673576 27.69901702 -21.56055264 22.80103619 -19 18 C-18.34 18 -17.68 18 -17 18 C-16.9175 17.38125 -16.835 16.7625 -16.75 16.125 C-16 14 -16 14 -14 12.875 C-13.34 12.58625 -12.68 12.2975 -12 12 C-11.67 11.34 -11.34 10.68 -11 10 C-10.34 10 -9.68 10 -9 10 C-9 9.34 -9 8.68 -9 8 C-8.34 8 -7.68 8 -7 8 C-6.67 6.68 -6.34 5.36 -6 4 C-4.35 3.67 -2.7 3.34 -1 3 C-0.67 2.01 -0.34 1.02 0 0 Z " fill="#D43663" transform="translate(99,174)"/>
<path d="M0 0 C1.54996422 0.03753891 1.54996422 0.03753891 3.13124084 0.07583618 C6.41206761 0.15761207 9.69225376 0.25436539 12.97265625 0.3515625 C15.20505247 0.40984538 17.43747451 0.46714769 19.66992188 0.5234375 C25.12535026 0.66312733 30.58033128 0.81509635 36.03515625 0.9765625 C36.03515625 1.3065625 36.03515625 1.6365625 36.03515625 1.9765625 C35.45966034 1.98242874 34.88416443 1.98829498 34.29122925 1.99433899 C28.28855913 2.05839086 22.2864193 2.14284082 16.28417969 2.23901367 C14.04564414 2.27221916 11.80702576 2.30026466 9.56835938 2.32299805 C6.34599586 2.35662395 3.12438851 2.40894522 -0.09765625 2.46484375 C-1.59330612 2.47442863 -1.59330612 2.47442863 -3.11917114 2.48420715 C-10.04412755 2.62994927 -14.1675527 4.1117018 -19.96484375 7.9765625 C-19.96484375 6.9865625 -19.96484375 5.9965625 -19.96484375 4.9765625 C-19.30484375 4.9765625 -18.64484375 4.9765625 -17.96484375 4.9765625 C-17.96484375 3.9865625 -17.96484375 2.9965625 -17.96484375 1.9765625 C-11.86291878 -0.19449277 -6.43194609 -0.20876815 0 0 Z " fill="#BE3F64" transform="translate(166.96484375,122.0234375)"/>
<path d="M0 0 C0.66 0.33 1.32 0.66 2 1 C-0.38253028 5.50033498 -3.27206903 8.58933975 -7 12 C-7.66 12 -8.32 12 -9 12 C-9.66 13.32 -10.32 14.64 -11 16 C-11.66 16 -12.32 16 -13 16 C-13 16.66 -13 17.32 -13 18 C-14.65 18.33 -16.3 18.66 -18 19 C-12.44964797 12.21623641 -6.23557973 6.14477032 0 0 Z " fill="#B95240" transform="translate(177,223)"/>
<path d="M0 0 C-2 2 -2 2 -5.25 3.625 C-10.65112467 6.70330279 -14.15752254 10.9404766 -15.81640625 16.96484375 C-16.30907122 19.64177161 -16.71150023 22.29407109 -17 25 C-17.33 25 -17.66 25 -18 25 C-18.45184346 18.05918236 -18.70029607 12.46324267 -14 7 C-9.49276263 2.57306975 -6.47748772 -0.1704602 0 0 Z " fill="#CB1C85" transform="translate(68,79)"/>
<path d="M0 0 C6.03214854 2.20073991 8.21242178 8.62684199 11 14 C12.88821405 18.10653546 14 21.40330687 14 26 C13.34 26 12.68 26 12 26 C11.67386719 25.04738281 11.34773437 24.09476563 11.01171875 23.11328125 C10.57060497 21.84625231 10.12918229 20.57933087 9.6875 19.3125 C9.04361328 17.45044922 9.04361328 17.45044922 8.38671875 15.55078125 C7.16803766 12.43027107 5.74465848 9.8395468 4 7 C4 6.34 4 5.68 4 5 C3.01 5 2.02 5 1 5 C0.67 3.35 0.34 1.7 0 0 Z " fill="#C02B6A" transform="translate(205,25)"/>
<path d="M0 0 C0.33 0.66 0.66 1.32 1 2 C-0.5039544 4.79305817 -2.24016054 7.36024081 -4 10 C-4.66 10 -5.32 10 -6 10 C-6 10.66 -6 11.32 -6 12 C-7.53125 13.5078125 -7.53125 13.5078125 -9.5 15.125 C-10.1496875 15.66382813 -10.799375 16.20265625 -11.46875 16.7578125 C-11.9740625 17.16773438 -12.479375 17.57765625 -13 18 C-13.66 17.67 -14.32 17.34 -15 17 C-12.59509597 12.45177799 -9.4632867 9.22648405 -5.8125 5.6875 C-5.25369141 5.13771484 -4.69488281 4.58792969 -4.11914062 4.02148438 C-2.75062588 2.67636304 -1.37593167 1.33753357 0 0 Z " fill="#DE5E33" transform="translate(158,242)"/>
<path d="M0 0 C1.67450725 3.34901451 0.57053859 7.0086153 0.125 10.625 C-0.01228516 11.79869141 -0.01228516 11.79869141 -0.15234375 12.99609375 C-0.33704269 14.56473405 -0.52681255 16.1327857 -0.72167969 17.70019531 C-0.90417723 19.20820132 -1.07202697 20.71806798 -1.22363281 22.22949219 C-1.60683209 25.87072936 -2.03998547 28.86397675 -4 32 C-4.63157895 6.94736842 -4.63157895 6.94736842 0 0 Z " fill="#D4227D" transform="translate(46,138)"/>
<path d="M0 0 C1.80629802 0.74439756 3.61920819 1.4728986 5.4375 2.1875 C6.30246094 2.53167969 7.16742188 2.87585938 8.05859375 3.23046875 C8.69925781 3.48441406 9.33992188 3.73835938 10 4 C9.67 4.66 9.34 5.32 9 6 C7.96359375 5.65066406 6.9271875 5.30132812 5.859375 4.94140625 C4.48961023 4.48169068 3.11981707 4.0220597 1.75 3.5625 C0.72712891 3.21735352 0.72712891 3.21735352 -0.31640625 2.86523438 C-6.16803732 0.90522203 -11.07678778 -0.16238439 -17.25 -0.5625 C-18.51328125 -0.64628906 -19.7765625 -0.73007812 -21.078125 -0.81640625 C-22.04234375 -0.87699219 -23.0065625 -0.93757813 -24 -1 C-24 -1.33 -24 -1.66 -24 -2 C-15.60640715 -3.9062372 -7.73774885 -4.01216607 0 0 Z " fill="#C7207C" transform="translate(170,24)"/>
<path d="M0 0 C0.66 0 1.32 0 2 0 C1.835 0.639375 1.67 1.27875 1.5 1.9375 C0.58767401 7.52549672 0.00462839 12.15145272 2.75 17.25 C3.4925 18.1575 4.235 19.065 5 20 C6.11375 21.423125 6.11375 21.423125 7.25 22.875 C7.8275 23.57625 8.405 24.2775 9 25 C8.34 25.33 7.68 25.66 7 26 C7 25.34 7 24.68 7 24 C6.38125 23.690625 5.7625 23.38125 5.125 23.0625 C0.84564468 20.92282234 -0.20882039 19.64078353 -2 15 C-2.5673576 9.69901702 -2.56055264 4.80103619 0 0 Z " fill="#B72E5C" transform="translate(80,192)"/>
<path d="M0 0 C0.99 0.495 0.99 0.495 2 1 C2.625 4.0625 2.625 4.0625 3 7 C3.66 7 4.32 7 5 7 C5 8.32 5 9.64 5 11 C5.9590625 11.1546875 5.9590625 11.1546875 6.9375 11.3125 C7.618125 11.539375 8.29875 11.76625 9 12 C9.33 12.99 9.66 13.98 10 15 C11.8653245 16.01754868 11.8653245 16.01754868 14.0625 16.6875 C14.79597656 16.93886719 15.52945313 17.19023437 16.28515625 17.44921875 C16.85105469 17.63097656 17.41695312 17.81273437 18 18 C18 18.99 18 19.98 18 21 C10.20471964 18.24872458 5.3244237 14.06774147 1.25 6.9375 C0 4 0 4 0 0 Z " fill="#AF3A55" transform="translate(29,274)"/>
<path d="M0 0 C0.33 0.66 0.66 1.32 1 2 C-0.89362604 7.12392927 -3.25296051 9.38428436 -8 12 C-10.375 12.75 -10.375 12.75 -12 13 C-12 13.66 -12 14.32 -12 15 C-12.66 15 -13.32 15 -14 15 C-13.67 14.01 -13.34 13.02 -13 12 C-12.34 12 -11.68 12 -11 12 C-11 11.34 -11 10.68 -11 10 C-9.625 8.375 -9.625 8.375 -8 7 C-7.34 7 -6.68 7 -6 7 C-6 6.34 -6 5.68 -6 5 C-4.04072937 3.2856382 -2.04119788 1.61594832 0 0 Z " fill="#DC6339" transform="translate(193,208)"/>
<path d="M0 0 C3.3084647 6.61692941 3.38144882 12.84716498 2 20 C1 21 1 21 -1.72265625 21.09765625 C-2.82480469 21.08605469 -3.92695313 21.07445313 -5.0625 21.0625 C-6.16722656 21.05347656 -7.27195313 21.04445313 -8.41015625 21.03515625 C-9.69212891 21.01775391 -9.69212891 21.01775391 -11 21 C-11 20.67 -11 20.34 -11 20 C-7.37 20 -3.74 20 0 20 C0 13.4 0 6.8 0 0 Z " fill="#E8376A" transform="translate(199,59)"/>
<path d="M0 0 C0.33 0 0.66 0 1 0 C2.82740271 5.5342074 3.40036883 10.62984825 3.625 16.4375 C3.66367187 17.26443359 3.70234375 18.09136719 3.7421875 18.94335938 C3.83553092 20.96191073 3.91880961 22.98092331 4 25 C3.34 24.67 2.68 24.34 2 24 C2 21.36 2 18.72 2 16 C1.34 15.67 0.68 15.34 0 15 C0 10.05 0 5.1 0 0 Z " fill="#CB7522" transform="translate(269,199)"/>
<path d="M0 0 C3.74993479 -0.05811773 7.49975352 -0.09363593 11.25 -0.125 C12.84521484 -0.15013672 12.84521484 -0.15013672 14.47265625 -0.17578125 C16.00986328 -0.18544922 16.00986328 -0.18544922 17.578125 -0.1953125 C18.52075195 -0.20578613 19.46337891 -0.21625977 20.43457031 -0.22705078 C23.09951941 0.00880787 24.71863092 0.64338341 27 2 C26.67 2.66 26.34 3.32 26 4 C25.154375 3.67128906 24.30875 3.34257813 23.4375 3.00390625 C19.74625533 1.92589502 16.83221678 1.8324502 13 1.9375 C8.50225035 2.05093009 4.41993338 1.86916373 0 1 C0 0.67 0 0.34 0 0 Z " fill="#EE4A5C" transform="translate(222,79)"/>
<path d="M0 0 C0.33 0 0.66 0 1 0 C0.42085333 6.01326751 -0.22337945 12.00892722 -1 18 C-1.99 18 -2.98 18 -4 18 C-3.41632611 11.69632197 -1.95928381 6.01339937 0 0 Z " fill="#AC1978" transform="translate(91,43)"/>
<path d="M0 0 C0.66 0 1.32 0 2 0 C0.9427871 2.76501836 -0.19330281 5.3711414 -1.5625 8 C-3.09783374 10.88742787 -3.09783374 10.88742787 -3.5625 13.8125 C-3.706875 14.534375 -3.85125 15.25625 -4 16 C-4.66 16.33 -5.32 16.66 -6 17 C-5.83026138 10.33390155 -4.47714629 5.11873111 0 0 Z " fill="#CC1C85" transform="translate(98,30)"/>
<path d="M0 0 C0.33 0 0.66 0 1 0 C3.29612756 14.59681093 3.29612756 14.59681093 3 22 C0.39949766 16.97236214 -0.13055811 12.91944107 -0.0625 7.3125 C-0.05798828 6.61060547 -0.05347656 5.90871094 -0.04882812 5.18554688 C-0.03706927 3.45699462 -0.01913454 1.72848635 0 0 Z " fill="#B06E30" transform="translate(273,225)"/>
<path d="M0 0 C0.33 0.66 0.66 1.32 1 2 C-1.01577062 6.50584021 -3.83128248 8.49876949 -8 11 C-8.66 10.67 -9.32 10.34 -10 10 C-6.7 6.7 -3.4 3.4 0 0 Z " fill="#AE4637" transform="translate(158,242)"/>
<path d="M0 0 C0 4.35637821 -2.27897057 6.05610053 -5.109375 9.19140625 C-7.24427494 11.23367623 -9.12212703 12.30233382 -12 13 C-8.19524578 8.43969176 -4.25030379 4.14910608 0 0 Z " fill="#CC5D44" transform="translate(206,195)"/>
<path d="M0 0 C0.66 0 1.32 0 2 0 C2.33 5.28 2.66 10.56 3 16 C1.34448433 12.68896866 0.51506906 10.41425769 -0.1875 6.875 C-0.45626953 5.57175781 -0.45626953 5.57175781 -0.73046875 4.2421875 C-1 2 -1 2 0 0 Z " fill="#AF4E3F" transform="translate(262,140)"/>
<path d="M0 0 C0.33 0 0.66 0 1 0 C2.51708428 13.6332574 2.51708428 13.6332574 0 20 C-0.99 19.67 -1.98 19.34 -3 19 C-2.505 18.0925 -2.01 17.185 -1.5 16.25 C0.78798541 11.04026795 0.24714013 5.574383 0 0 Z " fill="#9B3D3C" transform="translate(216,169)"/>
<path d="M0 0 C0 0.66 0 1.32 0 2 C-1.8984375 3.69140625 -1.8984375 3.69140625 -4.375 5.5625 C-5.59316406 6.49255859 -5.59316406 6.49255859 -6.8359375 7.44140625 C-9 9 -9 9 -11 10 C-10.62207203 7.32543283 -10.20233084 6.19388186 -8.22265625 4.296875 C-7.50980469 3.78640625 -6.79695313 3.2759375 -6.0625 2.75 C-5.35222656 2.22921875 -4.64195313 1.7084375 -3.91015625 1.171875 C-2 0 -2 0 0 0 Z " fill="#B91B7E" transform="translate(132,28)"/>
<path d="M0 0 C0.33 0 0.66 0 1 0 C1.08119503 2.24940295 1.13927819 4.49964871 1.1875 6.75 C1.22230469 8.00296875 1.25710937 9.2559375 1.29296875 10.546875 C0.98802939 14.14109357 0.45605371 15.44725126 -2 18 C-1.42085333 11.98673249 -0.77662055 5.99107278 0 0 Z " fill="#A31779" transform="translate(46,123)"/>
<path d="M0 0 C0 0.66 0 1.32 0 2 C-0.99 2.495 -0.99 2.495 -2 3 C-2.6496875 4.1446875 -2.6496875 4.1446875 -3.3125 5.3125 C-5.17518219 8.27899385 -7.18861522 9.94844894 -10 12 C-8.73050758 7.810675 -4.99190297 0 0 0 Z " fill="#A81873" transform="translate(109,18)"/>
<path d="M0 0 C0.66 0.33 1.32 0.66 2 1 C-0.10148204 4.98175544 -2.36905358 7.35039045 -6 10 C-4.79157144 5.56909529 -3.48331435 3.01887244 0 0 Z " fill="#C15635" transform="translate(177,223)"/>
<path d="M0 0 C0.66 0 1.32 0 2 0 C3.12029814 5.48946087 2.79217969 8.83430559 1 14 C0.67 14 0.34 14 0 14 C0 9.38 0 4.76 0 0 Z " fill="#C92E67" transform="translate(35,210)"/>
<path d="M0 0 C-0.3125 1.875 -0.3125 1.875 -1 4 C-1.99 4.66 -2.98 5.32 -4 6 C-4.99 5.01 -5.98 4.02 -7 3 C-3.375 0 -3.375 0 0 0 Z " fill="#D93360" transform="translate(147,128)"/>
<path d="M0 0 C0.99 0.33 1.98 0.66 3 1 C2.38245741 2.31602523 1.75571258 3.62773556 1.125 4.9375 C0.77695312 5.66839844 0.42890625 6.39929688 0.0703125 7.15234375 C-1 9 -1 9 -3 10 C-2.39009109 6.44219804 -1.4216319 3.3171411 0 0 Z " fill="#BE7B2E" transform="translate(275,277)"/>
<path d="M0 0 C2.31 1.98 4.62 3.96 7 6 C3 7 3 7 1 6 C0.375 2.9375 0.375 2.9375 0 0 Z " fill="#C34B4C" transform="translate(111,239)"/>
<path d="M0 0 C0.66 0 1.32 0 2 0 C4.42857143 7.42857143 4.42857143 7.42857143 3 11 C0 4.5 0 4.5 0 0 Z " fill="#CC2E71" transform="translate(195,48)"/>
<path d="M0 0 C0.99 0.33 1.98 0.66 3 1 C1.35 2.65 -0.3 4.3 -2 6 C-2.33 5.01 -2.66 4.02 -3 3 C-2.01 2.01 -1.02 1.02 0 0 Z M-5 6 C-4.34 6.33 -3.68 6.66 -3 7 C-3.99 7.66 -4.98 8.32 -6 9 C-5.67 8.01 -5.34 7.02 -5 6 Z " fill="#DB1D86" transform="translate(112,14)"/>
<path d="M0 0 C0.66 0.33 1.32 0.66 2 1 C-2.625 5.875 -2.625 5.875 -6 7 C-5.67 5.68 -5.34 4.36 -5 3 C-3.35 2.67 -1.7 2.34 0 2 C0 1.34 0 0.68 0 0 Z " fill="#F5692F" transform="translate(164,239)"/>
<path d="M0 0 C0.66 0.33 1.32 0.66 2 1 C0.6875 3.5 0.6875 3.5 -1 6 C-1.99 6 -2.98 6 -4 6 C-4 6.66 -4 7.32 -4 8 C-4.66 8 -5.32 8 -6 8 C-5.67 7.01 -5.34 6.02 -5 5 C-4.34 5 -3.68 5 -3 5 C-3 4.34 -3 3.68 -3 3 C-1.5 1.375 -1.5 1.375 0 0 Z " fill="#BE513C" transform="translate(185,215)"/>
<path d="M0 0 C2.31 0 4.62 0 7 0 C2.5 3 2.5 3 -2 6 C-2 5.01 -2 4.02 -2 3 C-1.34 3 -0.68 3 0 3 C0 2.01 0 1.02 0 0 Z " fill="#B02E5E" transform="translate(149,124)"/>
<path d="M0 0 C0 3.10551666 -0.5393715 4.35261084 -2 7 C-3.32 6.67 -4.64 6.34 -6 6 C-4.02 4.02 -2.04 2.04 0 0 Z " fill="#AB4144" transform="translate(172,228)"/>
<path d="M0 0 C2.31 1.98 4.62 3.96 7 6 C6.01 6.33 5.02 6.66 4 7 C1.23609263 4.59660228 0.95934081 3.83736322 0 0 Z " fill="#BC3E58" transform="translate(97,225)"/>
<path d="M0 0 C2.97 0.495 2.97 0.495 6 1 C6 1.99 6 2.98 6 4 C4.02 3.34 2.04 2.68 0 2 C0 1.34 0 0.68 0 0 Z " fill="#C3395D" transform="translate(242,79)"/>
</svg>
